<?xml version="1.0" encoding="UTF-8" standalone="no"?>
<!DOCTYPE svg PUBLIC "-//W3C//DTD SVG 1.1//EN" "http://www.w3.org/Graphics/SVG/1.1/DTD/svg11.dtd">
<svg width="100%" height="100%" viewBox="0 0 16 16" version="1.1" xmlns="http://www.w3.org/2000/svg" xmlns:xlink="http://www.w3.org/1999/xlink" xml:space="preserve" xmlns:serif="http://www.serif.com/" style="fill-rule:evenodd;clip-rule:evenodd;stroke-linejoin:round;stroke-miterlimit:2;">
    <g transform="matrix(1,0,0,1,-20.1138,0)">
        <g id="Artboard1" transform="matrix(1,0,0,1,20.1138,0)">
            <rect x="0" y="0" width="16" height="16" style="fill:none;"/>
            <g transform="matrix(1,0,0,1,-20.1138,0)">
                <rect x="20.114" y="0" width="16" height="16" style="fill:rgb(197,0,0);"/>
            </g>
            <g transform="matrix(0.0150392,0,0,0.0129407,-112.47,-3.29384)">
                <g transform="matrix(0.545832,0,0,0.634345,2764.99,-9487.24)">
                    <rect x="8868.09" y="15806" width="319.774" height="1024.36" style="fill:white;fill-rule:nonzero;"/>
                </g>
                <g transform="matrix(0.545832,0,0,0.634345,2764.99,-9487.24)">
                    <path d="M9713.59,16379.2C9713.59,16353.9 9704.34,16333.1 9685.82,16316.9C9667.3,16300.6 9642.23,16292.5 9610.62,16292.5C9576.29,16292.5 9549.64,16302 9530.67,16320.9C9511.7,16339.9 9500.86,16359.3 9498.16,16379.2L9713.59,16379.2ZM9983.24,16480.8C9983.24,16492.6 9983.01,16504.5 9982.56,16516.7C9982.11,16528.9 9981.43,16539.1 9980.52,16547.2L9500.86,16547.2C9501.77,16559.9 9506.06,16571.1 9513.74,16581.1C9521.42,16591 9530.9,16599.6 9542.19,16606.8C9553.48,16614.1 9566.13,16619.5 9580.13,16623.1C9594.13,16626.7 9608.36,16628.5 9622.81,16628.5C9651.72,16628.5 9675.88,16623.3 9695.3,16612.9C9714.72,16602.5 9729.4,16591 9739.34,16578.4L9961.56,16690.8C9929.94,16742.3 9884.1,16783 9824.02,16812.8C9763.95,16842.6 9694.17,16857.5 9614.68,16857.5C9563.19,16857.5 9513.06,16849.4 9464.28,16833.1C9415.5,16816.8 9372.37,16792.7 9334.88,16760.6C9297.39,16728.6 9267.36,16688.6 9244.77,16640.7C9222.19,16592.8 9210.9,16537.3 9210.9,16474C9210.9,16415.3 9221.29,16362.3 9242.07,16314.8C9262.84,16267.4 9291.07,16227.2 9326.75,16194.2C9362.43,16161.3 9404.44,16135.8 9452.76,16117.7C9501.09,16099.6 9552.81,16090.6 9607.91,16090.6C9663.91,16090.6 9714.95,16100.3 9761.02,16119.7C9807.09,16139.1 9846.61,16166.2 9879.58,16201C9912.55,16235.8 9938.07,16277.1 9956.14,16325C9974.2,16372.9 9983.24,16424.8 9983.24,16480.8Z" style="fill:white;fill-rule:nonzero;"/>
                </g>
                <g transform="matrix(0.545832,0,0,0.634345,2764.99,-9487.24)">
                    <path d="M9994.08,16677.3C9994.08,16652.9 9998.82,16630.1 10008.3,16608.9C10017.8,16587.6 10030.9,16569.1 10047.6,16553.3C10064.3,16537.5 10083.7,16524.9 10105.9,16515.4C10128,16505.9 10151.3,16501.1 10175.6,16501.1C10199.1,16501.1 10221.5,16505.9 10242.7,16515.4C10263.9,16524.9 10282.7,16537.5 10298.9,16553.3C10315.2,16569.1 10328.1,16587.6 10337.6,16608.9C10347,16630.1 10351.8,16652.9 10351.8,16677.3C10351.8,16701.7 10347,16724.7 10337.6,16746.4C10328.1,16768.1 10315.2,16786.6 10298.9,16801.9C10282.7,16817.3 10263.9,16829.5 10242.7,16838.5C10221.5,16847.6 10199.1,16852.1 10175.6,16852.1C10151.3,16852.1 10128,16847.6 10105.9,16838.5C10083.7,16829.5 10064.3,16817.3 10047.6,16801.9C10030.9,16786.6 10017.8,16768.1 10008.3,16746.4C9998.82,16724.7 9994.08,16701.7 9994.08,16677.3Z" style="fill:white;fill-rule:nonzero;"/>
                </g>
            </g>
        </g>
    </g>
</svg>
